<?xml version="1.0" encoding="utf-8"?>
<!-- Generator: Adobe Illustrator 24.1.1, SVG Export Plug-In . SVG Version: 6.00 Build 0)  -->
<svg version="1.1" id="Layer_1__x28_1:1_x29_" xmlns="http://www.w3.org/2000/svg" xmlns:xlink="http://www.w3.org/1999/xlink"
	 x="0px" y="0px" viewBox="0 0 230 75" style="enable-background:new 0 0 230 75;" xml:space="preserve">
<style type="text/css">
	.st0{fill:#FFFFFF;}
	.st1{fill:#FCB316;}
	.st2{fill:#10357F;}
	.st3{opacity:0;}
	.st4{fill:#FF5F00;}
	.st5{fill:#EB001B;}
	.st6{fill:#F79E1B;}
	.st7{fill:#0071CE;}
</style>
<rect class="st0" width="230" height="75"/>
<g>
	<g>
		<rect x="157.8" y="19.5" class="st0" width="56.6" height="36"/>
		<rect x="158.8" y="49.6" class="st1" width="54.7" height="4.9"/>
		<rect x="158.8" y="20.5" class="st2" width="54.7" height="4.9"/>
		<path class="st2" d="M180.7,30.8L175,44.3h-3.7l-2.8-10.8c0-0.5-0.4-1-0.8-1.2c-1.1-0.5-2.3-0.9-3.4-1.1l0.1-0.4h5.9
			c0.8,0,1.5,0.6,1.6,1.4l1.5,7.8l3.6-9.2C177,30.8,180.7,30.8,180.7,30.8z M195.1,39.9c0-3.6-4.9-3.8-4.9-5.3c0-0.5,0.5-1,1.5-1.1
			c1.2-0.1,2.4,0.1,3.4,0.6l0.6-2.9c-1-0.4-2.2-0.6-3.3-0.6c-3.4,0-5.9,1.8-5.9,4.5c0,1.9,1.7,3,3.1,3.7s1.8,1.1,1.8,1.7
			c0,0.9-1.1,1.3-2.1,1.3c-1.2,0-2.5-0.3-3.6-0.8l-0.6,3c1.2,0.5,2.6,0.7,3.9,0.7C192.7,44.5,195.1,42.7,195.1,39.9 M204.2,44.3h3.2
			l-2.8-13.5h-3c-0.7,0-1.2,0.4-1.5,1l-5.2,12.5h3.7l0.7-2h4.5L204.2,44.3z M200.3,39.5l1.8-5.1l1.1,5.1H200.3z M185.7,30.8
			l-2.9,13.5h-3.5l2.9-13.5L185.7,30.8z"/>
	</g>
	<g>
		<g class="st3">
			<rect x="87.7" y="18.8" class="st0" width="56.6" height="37.4"/>
		</g>
		<rect x="108.5" y="25.3" class="st4" width="14.9" height="24.4"/>
		<path class="st5" d="M110.1,37.5c0-4.8,2.2-9.3,5.9-12.2c-6.7-5.3-16.5-4.1-21.8,2.6c-5.3,6.7-4.1,16.5,2.6,21.8
			c5.6,4.4,13.5,4.4,19.2,0C112.3,46.8,110.1,42.3,110.1,37.5z"/>
		<path class="st6" d="M139.6,47.1v-0.5h0.2v-0.1h-0.5v0.1h0.2L139.6,47.1L139.6,47.1z M140.6,47.1v-0.6h-0.2l-0.2,0.4l-0.2-0.4
			h-0.2v0.6h0.1v-0.5l0.2,0.4h0.1l0.2-0.4v0.5H140.6z"/>
		<path class="st6" d="M141.1,37.5c0,8.6-6.9,15.5-15.5,15.5c-3.5,0-6.9-1.2-9.6-3.3c6.7-5.3,7.9-15,2.6-21.8
			c-0.8-1-1.6-1.8-2.6-2.6c6.7-5.3,16.5-4.1,21.8,2.6C139.9,30.6,141.1,34,141.1,37.5L141.1,37.5z"/>
	</g>
	<g>
		<g>
			<path class="st7" d="M67.4,51.6l-2.5-2.8l-2.6,2.8h-5.1l0,0h-11V38.7H41l6.4-14.5l6.2,0l2.2,5v-5h7.7l1.3,3.8l1.3-3.8l5.9,0v-2.2
				c0-1.3-1.1-2.4-2.4-2.4H18c-1.3,0-2.4,1.1-2.4,2.4v31.2c0,1.3,1.1,2.4,2.4,2.4h51.7c1.3,0,2.4-1.1,2.4-2.4v-1.6L67.4,51.6z"/>
			<g>
				<polygon class="st7" points="68.1,50.1 72.1,50.1 66.8,44.4 72.1,38.9 68.2,38.9 64.8,42.5 61.6,38.9 57.5,38.9 62.8,44.5 
					57.5,50.1 61.4,50.1 64.8,46.5 68.1,50.1 				"/>
				<polygon class="st7" points="51,47.5 51,45.8 57.3,45.8 57.3,43.2 51,43.2 51,41.5 57.5,41.5 57.5,38.9 47.9,38.9 47.9,50.1 
					57.5,50.1 57.5,47.5 51,47.5 				"/>
				<polygon class="st7" points="69.1,37.2 72.1,37.2 72.1,25.9 67.4,26 64.9,33 62.3,26 57.5,26 57.5,37.2 60.6,37.2 60.6,29.3 
					63.5,37.2 66.2,37.2 69.1,29.3 69.1,37.2 				"/>
				<path class="st7" d="M52.5,26h-4l-5,11.3h3.4l0.9-2.3h5.2l1,2.3h3.5L52.5,26z M48.9,32.4l1.5-3.7l1.5,3.7H48.9z"/>
			</g>
		</g>
		<polygon class="st7" points="69.3,44.1 72.1,47.2 72.2,41 69.3,44.1 		"/>
	</g>
</g>
</svg>
